<?xml version="1.0" encoding="UTF-8"?>
<svg version="1.1" xmlns="http://www.w3.org/2000/svg" width="512" height="512">
<path d="M0 0 C0.71027814 -0.00367669 1.42055628 -0.00735338 2.152358 -0.01114148 C4.53268591 -0.02215536 6.91297014 -0.02601829 9.2933197 -0.02983093 C11.00017942 -0.03609745 12.70703778 -0.04274442 14.41389465 -0.04974365 C20.02074741 -0.07076867 25.62760038 -0.08114638 31.23448181 -0.09111023 C33.16710868 -0.09515873 35.09973541 -0.09927568 37.03236198 -0.10346031 C46.1151532 -0.12251062 55.19793631 -0.13674052 64.28074366 -0.14507228 C74.75143292 -0.15483657 85.22191032 -0.18113567 95.69252497 -0.22157317 C103.79377386 -0.25178188 111.8949622 -0.26654577 119.99626631 -0.26985329 C124.83069636 -0.27219886 129.66490006 -0.28109454 134.49926949 -0.30631447 C139.05231013 -0.32968271 143.60497679 -0.33379341 148.15806198 -0.32355309 C149.82245443 -0.32305969 151.48686583 -0.32932169 153.15120125 -0.34310913 C165.57263393 -0.44018979 176.02041428 0.83179382 185.87901306 9.10029602 C193.9477739 17.0777124 198.2417743 26.17302924 198.35521787 37.51299417 C198.34920783 38.40921192 198.34319778 39.30542968 198.33700562 40.22880554 C198.34508392 41.69265196 198.34508392 41.69265196 198.35332543 43.18607104 C198.36756038 46.43544205 198.3605122 49.68440312 198.3533783 52.93379211 C198.3590842 55.27192511 198.36604931 57.61005532 198.37417603 59.94818115 C198.39209854 66.28500182 198.39094063 72.62168393 198.38523364 78.95852232 C198.38174859 84.92485419 198.38970907 90.89116905 198.39659429 96.85749562 C198.41030413 109.39683776 198.40489247 121.93611741 198.39340908 134.4754581 C198.38347959 145.92943503 198.39641509 157.38325035 198.42034327 168.83720236 C198.44476737 180.61793646 198.45433395 192.39859541 198.44769055 204.17935431 C198.4442055 210.78541177 198.44672056 217.39136093 198.46394157 223.99740219 C198.47943281 230.21093547 198.47543056 236.42416075 198.45663643 242.63768196 C198.45295657 244.91322458 198.45604133 247.18879014 198.46652222 249.4643116 C198.5339656 265.32229177 197.97434864 277.9806182 186.28916931 289.83076477 C178.96696088 296.51916017 171.66027723 299.26168368 161.82272339 299.29434204 C161.10427815 299.29801873 160.3858329 299.30169542 159.64561659 299.30548352 C157.23764969 299.31649839 154.82972597 299.3203605 152.42173767 299.32417297 C150.69517378 299.33043941 148.96861124 299.33708637 147.24205017 299.34408569 C141.57026608 299.36511153 135.89848176 299.37548845 130.22666931 299.38545227 C128.27175444 299.38950073 126.31683971 299.39361768 124.36192513 299.39780235 C115.17448243 299.41685279 105.98704775 299.4310827 96.7995891 299.43941432 C86.20777985 299.44917886 75.61618001 299.47547856 65.02444452 299.51591522 C56.82977816 299.54612234 48.63517166 299.56088766 40.44045073 299.56419533 C35.55013042 299.56654106 30.66003387 299.57543894 25.76977348 299.60065651 C21.16420443 299.624022 16.5590051 299.62813654 11.95339203 299.61789513 C10.26964904 299.61740167 8.58588733 299.62366561 6.9022007 299.63745117 C-4.96449135 299.72911905 -15.6400869 298.76704423 -25.20301819 290.97138977 C-33.20031798 283.07553565 -37.34554777 273.92169253 -37.45656675 262.72433954 C-37.45055671 261.81965778 -37.44454666 260.91497601 -37.43835449 259.98287964 C-37.4464328 258.50572421 -37.4464328 258.50572421 -37.4546743 256.99872726 C-37.46891082 253.71938442 -37.4618607 250.4404477 -37.45472717 247.16108704 C-37.46043296 244.80162737 -37.46739802 242.44217046 -37.4755249 240.0827179 C-37.49344775 233.68811534 -37.49228957 227.29365008 -37.48658252 220.89902997 C-37.4842685 216.90161104 -37.48648382 212.90421289 -37.49106026 208.90679741 C-37.49180868 208.24204199 -37.4925571 207.57728657 -37.4933282 206.89238704 C-37.49485977 205.54170116 -37.49639811 204.19101527 -37.49794317 202.8403294 C-37.51165286 190.19037857 -37.5062412 177.54048969 -37.49475796 164.89054029 C-37.48482602 153.33242396 -37.49776823 141.77446772 -37.52169215 130.21637607 C-37.54610792 118.33055579 -37.55568502 106.44480999 -37.54903942 94.55896515 C-37.54555285 87.8931387 -37.54807916 81.22741717 -37.56529045 74.56160164 C-37.58077001 68.29308036 -37.57679237 62.02486454 -37.55798531 55.75635529 C-37.55430237 53.45942938 -37.55739923 51.16248078 -37.56787109 48.86557579 C-37.58110234 45.72284893 -37.56951379 42.58113018 -37.55187988 39.43844604 C-37.56628739 38.08476947 -37.56628739 38.08476947 -37.58098596 36.7037459 C-37.45605511 25.83456744 -32.86585244 17.18600971 -25.42567444 9.45967102 C-18.12562777 2.70036855 -9.78976818 0.03287639 0 0 Z " fill="#1975D2" transform="translate(37.05067443847656,212.8528289794922)"/>
<path d="M0 0 C0.71844524 -0.00367669 1.43689049 -0.00735338 2.1771068 -0.01114148 C4.5850737 -0.02215635 6.99299742 -0.02601846 9.40098572 -0.02983093 C11.1275496 -0.03609737 12.85411215 -0.04274433 14.58067322 -0.04974365 C20.25245731 -0.07076948 25.92424163 -0.08114641 31.59605408 -0.09111023 C33.55096895 -0.09515869 35.50588368 -0.09927564 37.46079826 -0.10346031 C46.64824096 -0.12251075 55.83567564 -0.13674066 65.02313429 -0.14507228 C75.61494354 -0.15483682 86.20654337 -0.18113652 96.79827887 -0.22157317 C104.99294523 -0.2517803 113.18755173 -0.26654562 121.38227266 -0.26985329 C126.27259297 -0.27219902 131.16268952 -0.2810969 136.05294991 -0.30631447 C140.65851896 -0.32967996 145.26371828 -0.33379449 149.86933136 -0.32355309 C151.55307435 -0.32305963 153.23683606 -0.32932356 154.92052269 -0.34310913 C166.78721474 -0.43477701 177.46281029 0.52729781 187.02574158 8.32295227 C195.02304136 16.21880639 199.16827116 25.37264951 199.27929014 36.5700025 C199.27328009 37.47468427 199.26727005 38.37936603 199.26107788 39.3114624 C199.26915619 40.78861783 199.26915619 40.78861783 199.27739769 42.29561478 C199.29163421 45.57495762 199.28458409 48.85389434 199.27745056 52.133255 C199.28315635 54.49271467 199.29012141 56.85217158 199.29824829 59.21162415 C199.31617113 65.6062267 199.31501296 72.00069196 199.30930591 78.39531207 C199.30699189 82.392731 199.30920721 86.39012915 199.31378365 90.38754463 C199.31453207 91.05230005 199.31528049 91.71705547 199.31605159 92.401955 C199.31758315 93.75264089 199.3191215 95.10332677 199.32066656 96.45401264 C199.33437625 109.10396347 199.32896458 121.75385235 199.31748135 134.40380175 C199.3075494 145.96191808 199.32049162 157.51987432 199.34441554 169.07796597 C199.36883131 180.96378625 199.37840841 192.84953205 199.37176281 204.73537689 C199.36827624 211.40120334 199.37080255 218.06692487 199.38801384 224.7327404 C199.4034934 231.00126168 199.39951575 237.2694775 199.38070869 243.53798676 C199.37702575 245.83491266 199.38012261 248.13186126 199.39059448 250.42876625 C199.40382573 253.57149311 199.39223718 256.71321186 199.37460327 259.855896 C199.38901078 261.20957257 199.38901078 261.20957257 199.40370935 262.59059614 C199.2787785 273.4597746 194.68857583 282.10833233 187.24839783 289.83467102 C179.96022264 296.58298138 171.63034495 299.26465013 161.85395813 299.28761292 C161.14705798 299.29058404 160.44015783 299.29355516 159.71183646 299.29661632 C157.34298944 299.30528811 154.97419305 299.30681029 152.60533142 299.30830383 C150.90670158 299.31293319 149.20807278 299.31795801 147.50944519 299.323349 C142.89345574 299.33646614 138.27748083 299.34291695 133.66147566 299.34735966 C130.77551675 299.35029228 127.8895618 299.35439751 125.00360489 299.35886383 C115.96833355 299.3725387 106.93307128 299.38220467 97.89779031 299.38606572 C87.47919985 299.39054265 77.06074084 299.40807363 66.64219034 299.43706632 C58.58256939 299.45871324 50.52298533 299.46877166 42.46333563 299.47010684 C37.65301498 299.47115297 32.84281789 299.47701952 28.03252792 299.49492645 C23.5033373 299.51145859 18.97436241 299.51353776 14.44515228 299.50478745 C12.78840938 299.50401974 11.13165463 299.50832439 9.47494125 299.5182457 C-4.02445394 299.59430557 -14.56988684 298.26675368 -25.12660217 289.14717102 C-37.34918097 276.76100131 -36.70767702 262.43756925 -36.6441803 246.13349915 C-36.64960593 243.79507004 -36.65673106 241.45664435 -36.66542053 239.1182251 C-36.68360406 232.78974153 -36.67660672 226.46151979 -36.66390419 220.13303185 C-36.6547813 214.17179834 -36.66175801 208.21059667 -36.66761297 202.24936229 C-36.67899707 189.72334007 -36.66593927 177.19743527 -36.6444115 164.67143232 C-36.62654246 153.94242057 -36.62964718 143.21358199 -36.64808655 132.48457336 C-36.66953176 120.00090231 -36.67789863 107.51733397 -36.66563749 95.03364706 C-36.65941336 88.43432555 -36.65853732 81.83512311 -36.67178345 75.23580933 C-36.68336965 69.0304437 -36.67526517 62.82540389 -36.65220642 56.62007332 C-36.64693419 54.34775902 -36.64840752 52.07541712 -36.65725708 49.80311394 C-36.71325868 33.95825056 -36.14107693 21.3030266 -24.46644592 9.46357727 C-17.14423749 2.77518187 -9.83755384 0.03265836 0 0 Z " fill="#1976D2" transform="translate(313.12660217285156,-0.1471710205078125)"/>
<path d="M0 0 C1.70760035 -0.00570953 3.41519689 -0.01267604 5.12278748 -0.02079773 C9.74066987 -0.03868084 14.35836173 -0.03756979 18.97626829 -0.03185534 C22.84038226 -0.02875617 26.70446002 -0.03486411 30.56856883 -0.04089409 C39.68946088 -0.05492208 48.81025923 -0.05339268 57.93115234 -0.04199219 C67.32031648 -0.03051523 76.70919483 -0.04458349 86.09832132 -0.07138866 C94.17845836 -0.09358755 102.25850597 -0.10017354 110.33867133 -0.09431225 C115.15623358 -0.09095118 119.97361272 -0.09330095 124.79114914 -0.11056328 C129.3237727 -0.12609704 133.85597492 -0.12200598 138.38858223 -0.10325813 C140.04490265 -0.09958985 141.70125474 -0.10262895 143.35754585 -0.11314392 C157.36234123 -0.19521414 168.48921518 1.92459894 178.77197266 12.06420898 C184.53902604 18.37776618 188.19033018 25.47360743 188.23554993 34.10096741 C188.24628288 35.51156937 188.24628288 35.51156937 188.25723267 36.95066833 C188.25992157 37.97563919 188.26261047 39.00061005 188.26538086 40.05664062 C188.27195206 41.14170898 188.27852325 42.22677734 188.28529358 43.34472656 C188.30501633 46.93872142 188.31668847 50.53267446 188.32666016 54.12670898 C188.33073568 55.35599058 188.33481121 56.58527218 188.33901024 57.85180473 C188.35771915 63.69040101 188.37228376 69.52898091 188.38062221 75.36760145 C188.3894063 81.41689706 188.40865471 87.46594094 188.44506836 93.51513672 C188.48357696 100.01666023 188.50231721 106.51795695 188.5068264 113.01959038 C188.51168438 115.49179769 188.52327571 117.96400167 188.5418644 120.43614388 C188.56633019 123.90626147 188.56527646 127.37552487 188.55834961 130.84570312 C188.5775647 132.36190498 188.5775647 132.36190498 188.59716797 133.90873718 C188.52254665 144.2268257 185.45072759 153.94711284 178.08837891 161.40405273 C166.79986323 170.96179088 156.1171313 171.85032287 141.97729492 171.80810547 C140.24836792 171.81381479 138.51944469 171.82078122 136.79052734 171.8289032 C132.11486339 171.84678724 127.4393876 171.84567524 122.76369977 171.83996081 C118.85227046 171.8368622 114.94087694 171.84296886 111.02945274 171.84899956 C101.79833186 171.86302745 92.56730357 171.86149784 83.33618164 171.85009766 C73.82998331 171.8386168 64.32406712 171.85269554 54.81790596 171.87949413 C46.6392718 171.90168248 38.46072601 171.90828149 30.2820639 171.90241772 C25.40473065 171.89905461 20.52757825 171.90142028 15.65027046 171.91866875 C11.06265964 171.93418596 6.47546544 171.93012959 1.88787079 171.9113636 C0.21016708 171.90769098 -1.46756783 171.91074728 -3.14524269 171.92124939 C-17.0758533 172.00175599 -27.30974727 169.68733864 -37.59912109 159.77905273 C-43.47082259 153.43761512 -47.01250697 145.45395165 -47.05879211 136.7830658 C-47.06594742 135.8594928 -47.07310272 134.9359198 -47.08047485 133.98435974 C-47.08316376 132.97809036 -47.08585266 131.97182098 -47.08862305 130.93505859 C-47.09519424 129.86949738 -47.10176544 128.80393616 -47.10853577 127.70608521 C-47.12825696 124.17702156 -47.13993037 120.64800051 -47.14990234 117.11889648 C-47.15397787 115.91168001 -47.1580534 114.70446354 -47.16225243 113.46066475 C-47.18311065 107.06785376 -47.19741205 100.67506421 -47.20678711 94.28222656 C-47.21783571 87.69401736 -47.25221896 81.10614736 -47.29195881 74.51805782 C-47.31816611 69.44008273 -47.32648275 64.36218785 -47.33006859 59.28415108 C-47.33492584 56.85660073 -47.34651506 54.42905376 -47.36510658 52.00156975 C-47.38957895 48.59371348 -47.38851749 45.18672671 -47.3815918 41.77880859 C-47.39440186 40.78670883 -47.40721191 39.79460907 -47.42041016 38.77244568 C-47.33924639 27.74641565 -43.70679724 18.28848662 -35.91162109 10.40405273 C-24.71874232 0.87898702 -14.04841079 -0.04248035 0 0 Z " fill="#2196F3" transform="translate(323.91162109375,340.595947265625)"/>
<path d="M0 0 C1.728927 -0.00570932 3.45785023 -0.01267575 5.18676758 -0.02079773 C9.86243153 -0.03868177 14.53790732 -0.03756978 19.21359515 -0.03185534 C23.12502446 -0.02875673 27.03641798 -0.03486339 30.94784218 -0.04089409 C40.17896306 -0.05492198 49.40999136 -0.05339237 58.64111328 -0.04199219 C68.14731161 -0.03051133 77.6532278 -0.04459007 87.15938896 -0.07138866 C95.33802312 -0.09357701 103.51656891 -0.10017602 111.69523102 -0.09431225 C116.57256427 -0.09094914 121.44971668 -0.09331481 126.32702446 -0.11056328 C130.91463528 -0.12608049 135.50182948 -0.12202412 140.08942413 -0.10325813 C141.76712784 -0.09958551 143.44486275 -0.10264181 145.12253761 -0.11314392 C159.05314822 -0.19365052 169.28704219 2.12076683 179.57641602 12.02905273 C185.44811751 18.37049035 188.98980189 26.35415382 189.03608704 35.02503967 C189.04681999 36.41039917 189.04681999 36.41039917 189.05776978 37.82374573 C189.06045868 38.83001511 189.06314758 39.83628448 189.06591797 40.87304688 C189.07248917 41.93860809 189.07906036 43.00416931 189.08583069 44.10202026 C189.10555188 47.63108391 189.11722529 51.16010496 189.12719727 54.68920898 C189.13127279 55.89642546 189.13534832 57.10364193 189.13954735 58.34744072 C189.16040557 64.74025171 189.17470698 71.13304126 189.18408203 77.52587891 C189.19513063 84.11408811 189.22951388 90.70195811 189.26925373 97.29004765 C189.29546103 102.36802274 189.30377768 107.44591762 189.30736351 112.52395439 C189.31222076 114.95150474 189.32380999 117.37905171 189.3424015 119.80653572 C189.36687387 123.21439199 189.36581241 126.62137876 189.35888672 130.02929688 C189.37810181 131.51744652 189.37810181 131.51744652 189.39770508 133.03565979 C189.31648693 144.06907723 185.67926971 153.50943044 177.88891602 161.40405273 C166.63850638 171.122894 155.20871158 171.85156202 140.95556641 171.80810547 C139.25767062 171.81381652 137.55977867 171.82078361 135.8618927 171.8289032 C131.27505982 171.84676802 126.68841894 171.84567891 122.10156178 171.83996081 C118.26225085 171.83685943 114.4229763 171.84297191 110.58367056 171.84899956 C101.52173235 171.8630211 92.45988848 171.86150312 83.39794922 171.85009766 C74.0706796 171.83861717 64.74369755 171.85269636 55.41646582 171.87949413 C47.38726348 171.90169298 39.35815113 171.90827914 31.3289203 171.90241772 C26.54267163 171.89905714 21.75660726 171.90140329 16.9703846 171.91866875 C12.46811551 171.93420282 7.96627059 171.93011113 3.46401787 171.9113636 C1.8189845 171.90769562 0.17391925 171.91073352 -1.47108459 171.92124939 C-15.44032639 172.00368019 -26.54113489 169.8546986 -36.79467773 159.74389648 C-42.57921003 153.41120402 -46.21339445 146.31232303 -46.258255 137.66244507 C-46.26541031 136.71218445 -46.27256561 135.76192383 -46.27993774 134.78286743 C-46.2839711 133.22902847 -46.2839711 133.22902847 -46.28808594 131.64379883 C-46.29465714 130.54737061 -46.30122833 129.45094238 -46.30799866 128.32128906 C-46.32772054 124.69002208 -46.3393927 121.05879646 -46.34936523 117.42749023 C-46.35344076 116.18592793 -46.35751629 114.94436562 -46.36171532 113.66518021 C-46.38042297 107.76945534 -46.39498854 101.87374357 -46.40332729 95.97799623 C-46.4130844 89.19294794 -46.43936744 82.40822722 -46.47982818 75.62329423 C-46.5137496 69.73079611 -46.52548242 63.83840679 -46.52953148 57.94581985 C-46.53439327 55.44766649 -46.54599554 52.94951651 -46.56456947 50.45142746 C-46.58899929 46.94758029 -46.58798816 43.44458066 -46.58105469 39.94067383 C-46.59386475 38.91692657 -46.6066748 37.89317932 -46.61987305 36.83840942 C-46.54711235 26.70383081 -43.2291913 17.75079305 -36.11108398 10.40405273 C-24.83511624 0.83772916 -14.13157428 -0.04219274 0 0 Z " fill="#2196F3" transform="translate(46.111083984375,-0.404052734375)"/>
</svg>
