<?xml version="1.0" encoding="UTF-8"?>
<svg version="1.1" xmlns="http://www.w3.org/2000/svg" width="512" height="512">
<path d="M0 0 C0.99319059 -0.00445784 1.98638119 -0.00891569 3.00966847 -0.01350862 C4.10371113 -0.01332426 5.19775379 -0.01313989 6.32494926 -0.01294994 C7.48497487 -0.01662663 8.64500047 -0.02030332 9.84017837 -0.02409142 C13.06547972 -0.03321952 16.29075116 -0.03782824 19.51606321 -0.04048073 C22.99270576 -0.0443838 26.46933358 -0.0539622 29.94596672 -0.0626936 C38.34527389 -0.08245898 46.74458227 -0.09252476 55.14390689 -0.10142139 C59.09963962 -0.10580457 63.05537101 -0.11117134 67.01110268 -0.11641026 C80.16182808 -0.13342337 93.31255264 -0.14791708 106.46328735 -0.155159 C109.87623025 -0.15706888 113.28917314 -0.15898922 116.70211601 -0.16094494 C117.55038392 -0.16142868 118.39865184 -0.16191242 119.27262484 -0.16241082 C133.01099772 -0.17070937 146.74928349 -0.19604293 160.48761834 -0.22852562 C174.59370333 -0.26160573 188.69974405 -0.27960866 202.80586803 -0.28280324 C210.72541128 -0.28496756 218.64482753 -0.2937047 226.56433296 -0.31926441 C233.30975206 -0.34098453 240.0550133 -0.34901546 246.80046339 -0.33929763 C250.24062531 -0.33475653 253.68046163 -0.33662747 257.12057877 -0.35605907 C260.85507402 -0.37373024 264.58874465 -0.36669398 268.32324028 -0.35352612 C269.40389861 -0.36449536 270.48455694 -0.37546461 271.5979625 -0.38676625 C279.57700481 -0.3188987 285.71524714 1.27893135 291.9550457 6.38422108 C297.67307811 13.37292735 300.36241417 18.80553738 300.31857109 27.91034412 C300.31871712 28.70082142 300.31886314 29.49129871 300.3190136 30.30572987 C300.31831679 32.91916108 300.31053525 35.53252106 300.30270195 38.14593983 C300.30083695 39.95769175 300.29941343 41.76944418 300.29841423 43.58119678 C300.29459555 48.35039124 300.28477078 53.11955525 300.27371025 57.88873768 C300.26348219 62.7550665 300.25891362 67.62140023 300.25387383 72.4877367 C300.24314796 82.0365782 300.2260793 91.58539711 300.2050457 101.13422108 C301.42533974 101.12422832 301.42533974 101.12422832 302.67028618 101.1140337 C310.35022653 101.05383474 318.03005191 101.00820218 325.71016693 100.97878456 C329.65826957 100.96315204 333.60617667 100.94195827 337.55416679 100.90790272 C341.36672059 100.87522257 345.1790867 100.85734991 348.99176979 100.84958935 C350.44378805 100.84406131 351.89579644 100.83326634 353.34773445 100.81703091 C355.38714575 100.79514062 357.42578906 100.79225885 359.46529961 100.79364491 C360.62445885 100.78698307 361.78361809 100.78032124 362.97790337 100.77345753 C368.57594392 101.39926475 372.60173396 103.86362938 376.2050457 108.13422108 C377.1836801 111.07012426 377.33302664 112.95741805 377.33926678 116.01564217 C377.34372462 117.02809984 377.34818246 118.0405575 377.35277539 119.08369571 C377.35249885 120.75701135 377.35249885 120.75701135 377.35221672 122.46413136 C377.35589341 123.64669142 377.3595701 124.82925148 377.3633582 126.0476467 C377.37248676 129.33575536 377.37709509 132.62381409 377.37974751 135.91193068 C377.38365027 139.45600099 377.39322853 143.00005684 377.40196037 146.54411793 C377.42172415 155.10507174 377.43179025 163.66602673 377.44068816 172.22699764 C377.44507064 176.25733377 377.4504375 180.28766857 377.45567703 184.31800365 C377.47268816 197.71321846 377.48718323 211.10843244 377.49442577 224.50365639 C377.4963357 227.97987653 377.49825603 231.45609666 377.50021172 234.93231678 C377.50069546 235.7963247 377.5011792 236.66033261 377.5016776 237.55052259 C377.50998129 251.55281565 377.53532442 265.55502337 377.56779239 279.55727915 C377.60084558 293.92890253 377.6188729 308.30048251 377.62207001 322.67214411 C377.62423658 330.74305621 377.63300669 338.81384381 377.65853119 346.88471889 C377.68021434 353.75685135 377.68830038 360.62882907 377.67856441 367.50099186 C377.6740129 371.00761342 377.67595481 374.51391555 377.69532585 378.02049351 C377.71292928 381.821721 377.70599449 385.62213287 377.69279289 389.42335987 C377.70924676 391.08663727 377.70924676 391.08663727 377.72603303 392.78351623 C377.67646488 398.6772436 377.47399643 402.66305806 373.2050457 407.13422108 C368.65936958 410.19437107 364.57029214 410.5592612 359.23241997 410.49498463 C358.44733492 410.4975479 357.66224987 410.50011118 356.85337436 410.50275213 C354.2322683 410.50767923 351.61174291 410.49121509 348.99069023 410.47479725 C347.10805589 410.47395074 345.22542056 410.47442658 343.34278679 410.47612476 C338.23784607 410.47698522 333.13311698 410.45935111 328.02822542 410.43840289 C322.69108879 410.41964466 317.35394727 410.41788632 312.01678276 410.41432667 C301.91276034 410.40500371 291.80883533 410.38038648 281.7048558 410.3502782 C270.2007171 410.31674205 258.69657373 410.30025014 247.19239831 410.28519189 C223.52988099 410.25383717 199.86749722 410.1988219 176.2050457 410.13422108 C176.2050457 429.27422108 176.2050457 448.41422108 176.2050457 468.13422108 C181.28395195 468.08781483 186.3628582 468.04140858 191.5956707 467.99359608 C194.81313905 467.97315802 198.03052738 467.9539024 201.24801445 467.93890858 C206.35511711 467.9149962 211.46193294 467.88670732 216.56881523 467.83246326 C220.68611354 467.78900398 224.80310427 467.7650838 228.92061424 467.7547121 C230.4915304 467.74732081 232.06242972 467.73288719 233.63321495 467.71130085 C235.83363539 467.68226426 238.03278483 467.67826495 240.23336601 467.68011951 C241.48579094 467.67123707 242.73821587 467.66235462 244.02859306 467.65320301 C247.2050457 468.13422108 247.2050457 468.13422108 249.60941887 469.93164539 C251.97092837 473.19143228 251.75882301 476.38627824 251.70113945 480.25922108 C251.70259468 481.04313221 251.70404991 481.82704334 251.70554924 482.63470936 C251.70389235 484.28888136 251.69235442 485.9430691 251.67159843 487.5971117 C251.64264243 490.12577414 251.65099271 492.65233912 251.66403008 495.18109608 C251.65779223 496.79048124 251.64940092 498.3998598 251.63863945 500.00922108 C251.64157509 500.76348377 251.64451073 501.51774647 251.64753532 502.29486561 C251.59536405 505.20502464 251.41722811 507.65892554 250.22308159 510.33385277 C247.05231093 513.16262061 243.55402238 512.68135475 239.51241875 512.63542652 C238.61359065 512.64096092 237.71476255 512.64649531 236.78869724 512.65219742 C233.76444185 512.66585551 230.74100439 512.65080673 227.71676445 512.63593006 C225.5537258 512.63971136 223.39068956 512.64520983 221.22765923 512.65230274 C215.3434232 512.66629925 209.45947821 512.65505807 203.57525826 512.63859153 C197.42670507 512.62477298 191.27816934 512.63119745 185.12960625 512.63472462 C174.80281682 512.63742927 164.47614345 512.62392916 154.14938164 512.60077381 C142.1983852 512.57416254 130.24758287 512.57241606 118.29656696 512.58416218 C106.81532042 512.59492934 95.33414431 512.58876122 83.85290337 512.5746069 C78.95979974 512.56883788 74.06674751 512.56893696 69.17364311 512.57367229 C63.41494612 512.57843331 57.65646254 512.56837668 51.89780617 512.54671764 C49.78017077 512.54113765 47.66251491 512.54069551 45.54487801 512.54567051 C42.66223679 512.55159503 39.78025436 512.53917279 36.89767265 512.52190113 C35.62983704 512.5309162 35.62983704 512.5309162 34.33638859 512.54011339 C28.66241154 512.47795909 28.66241154 512.47795909 26.49202061 510.84677941 C24.25257901 507.86678785 24.77960761 504.21925524 24.8066082 500.63422108 C24.80373802 499.80213123 24.80086784 498.97004139 24.79791069 498.1127367 C24.79587008 496.35426623 24.80139977 494.59577307 24.81393242 492.83734608 C24.82998668 490.14412194 24.81408425 487.45239848 24.79488945 484.75922108 C24.79687188 483.05088443 24.80071556 481.34254871 24.8066082 479.63422108 C24.80053551 478.82791248 24.79446281 478.02160389 24.7882061 477.1908617 C24.85759712 471.6809636 24.85759712 471.6809636 26.29493523 469.41917896 C29.20958771 467.4584517 31.67174971 467.77540801 35.15499687 467.79364491 C35.85769203 467.79320683 36.56038719 467.79276875 37.28437614 467.79231739 C39.60587206 467.7944066 41.92664479 467.81774289 44.24801445 467.84125233 C45.85798053 467.84684783 47.46795172 467.85111815 49.07792473 467.85411549 C53.31459477 467.86556789 57.5509561 467.89503829 61.7875042 467.92822742 C66.87106509 467.96431653 71.95472923 467.9780876 77.03838158 467.99558735 C84.76081764 468.02467563 92.48257637 468.08215949 100.2050457 468.13422108 C100.2050457 448.99422108 100.2050457 429.85422108 100.2050457 410.13422108 C94.45050957 410.14993153 88.69597343 410.16564198 82.76705742 410.1818285 C63.78005373 410.23147925 44.79304752 410.26480472 25.80599594 410.28965759 C14.29119242 410.30513018 2.77645038 410.32622724 -8.73831367 410.36053944 C-18.77391916 410.39042973 -28.80948013 410.40979323 -38.84512889 410.41648656 C-44.15952622 410.42039943 -49.47379617 410.42960348 -54.78815269 410.45141125 C-59.79002676 410.47177047 -64.79172094 410.47805598 -69.79363251 410.47354412 C-71.62943753 410.47436957 -73.46524856 410.48033855 -75.30101776 410.4918375 C-77.80834219 410.50677284 -80.3149883 410.503171 -82.82232857 410.49498463 C-83.54802264 410.50372315 -84.27371672 410.51246168 -85.02140152 410.521465 C-89.69576026 410.48024005 -92.90615429 409.75216196 -96.7949543 407.13422108 C-101.83850187 401.84806401 -101.35593939 396.32959869 -101.29615974 389.43681812 C-101.30169414 388.25098922 -101.30722854 387.06516031 -101.31293064 385.8433972 C-101.32417739 382.55993895 -101.31751393 379.27708385 -101.30319393 375.99365556 C-101.29207915 372.44964114 -101.30402833 368.90569382 -101.31303596 365.36168385 C-101.32696661 358.42246492 -101.31941382 351.48342801 -101.30436038 344.54421776 C-101.2874988 336.4639328 -101.29071069 328.38369317 -101.29445446 320.30339605 C-101.30033262 305.8871857 -101.2861627 291.47106271 -101.26150703 277.05487537 C-101.23758192 263.06428218 -101.23050456 249.07380567 -101.24099922 235.08319569 C-101.25240636 219.84884509 -101.25434136 204.61454847 -101.23990113 189.38019854 C-101.23837528 187.75605174 -101.23685492 186.13190494 -101.23534012 184.50775814 C-101.2345823 183.70863965 -101.23382449 182.90952116 -101.23304371 182.08618696 C-101.22829965 176.45288229 -101.23015315 170.81960172 -101.23440552 165.18629742 C-101.23933016 158.32262284 -101.23335675 151.45905862 -101.21351122 144.59540933 C-101.20363413 141.09300932 -101.19853853 137.59077742 -101.20640373 134.08836842 C-101.21233551 130.29361111 -101.19989105 126.49935267 -101.18263435 122.70464039 C-101.1886444 121.59492231 -101.19465444 120.48520423 -101.20084661 119.34185833 C-101.12365188 110.0451354 -101.12365188 110.0451354 -97.7949543 106.13422108 C-92.9913523 101.81097928 -89.76699917 101.00856004 -83.39578438 101.02069569 C-82.75161064 101.02054966 -82.1074369 101.02040363 -81.44374275 101.02025318 C-79.31728928 101.02094912 -77.1909237 101.0287266 -75.06448555 101.03656483 C-73.58903743 101.03843014 -72.11358869 101.03985351 -70.63813972 101.04085255 C-66.75669835 101.04466882 -62.87529445 101.05449151 -58.99386787 101.06555653 C-55.03238621 101.07578977 -51.07089849 101.08035427 -47.10940742 101.08539295 C-39.33790597 101.09611457 -31.56643539 101.11318032 -23.7949543 101.13422108 C-23.80605736 100.14165302 -23.81716042 99.14908497 -23.82859993 98.12643909 C-23.93026322 88.74075655 -24.0050569 79.35518674 -24.05401516 69.96907711 C-24.08003206 65.1443331 -24.11528441 60.32003604 -24.17215157 55.4955492 C-24.22675502 50.83356724 -24.25643422 46.1720133 -24.26934052 41.50973606 C-24.27852981 39.73721937 -24.29647394 37.96472427 -24.32360458 36.1923914 C-24.49152262 24.76118194 -24.06580787 16.35112529 -16.3574543 7.25922108 C-11.08797582 2.88940966 -6.92838593 0.01441347 0 0 Z " fill="#EAEFF2" transform="translate(117.79495429992676,-0.13422107696533203)"/>
<path d="M0 0 C0.64417374 -0.00014603 1.28834747 -0.00029205 1.95204163 -0.0004425 C4.0784951 0.00025344 6.20486068 0.00803091 8.33129883 0.01586914 C9.80674695 0.01773445 11.28219569 0.01915782 12.75764465 0.02015686 C16.63908603 0.02397313 20.52048993 0.03379583 24.4019165 0.04486084 C28.36339816 0.05509408 32.32488588 0.05965858 36.28637695 0.06469727 C44.05788038 0.07541889 51.8293452 0.09300849 59.60083008 0.11352539 C59.60083008 8.36352539 59.60083008 16.61352539 59.60083008 25.11352539 C42.11083008 25.11352539 24.62083008 25.11352539 6.60083008 25.11352539 C6.60083008 100.68352539 6.60083008 176.25352539 6.60083008 254.11352539 C148.50083008 254.11352539 290.40083008 254.11352539 436.60083008 254.11352539 C436.60083008 178.21352539 436.60083008 102.31352539 436.60083008 24.11352539 C419.11083008 24.11352539 401.62083008 24.11352539 383.60083008 24.11352539 C383.60083008 16.19352539 383.60083008 8.27352539 383.60083008 0.11352539 C392.10254162 0.04565371 400.60404128 -0.00934573 409.10595131 -0.04191113 C413.05405395 -0.05754365 417.00196105 -0.07873741 420.94995117 -0.11279297 C424.76250496 -0.14547312 428.57487108 -0.16334578 432.38755417 -0.17110634 C433.83957242 -0.17663437 435.29158082 -0.18742935 436.74351883 -0.20366478 C438.78293013 -0.22555507 440.82157344 -0.22843684 442.86108398 -0.22705078 C444.02024323 -0.23371262 445.17940247 -0.24037445 446.37368774 -0.24723816 C451.9717283 0.37856906 455.99751833 2.84293369 459.60083008 7.11352539 C460.57946447 10.04942858 460.72881102 11.93672236 460.73505116 14.99494648 C460.739509 16.00740415 460.74396684 17.01986182 460.74855977 18.06300002 C460.74828323 19.73631567 460.74828323 19.73631567 460.7480011 21.44343567 C460.75167779 22.62599573 460.75535447 23.8085558 460.75914258 25.02695101 C460.76827114 28.31505967 460.77287947 31.60311841 460.77553189 34.89123499 C460.77943465 38.43530531 460.78901291 41.97936116 460.79774475 45.52342224 C460.81750852 54.08437605 460.82757463 62.64533104 460.83647254 71.20630196 C460.84085502 75.23663808 460.84622188 79.26697289 460.85146141 83.29730797 C460.86847254 96.69252277 460.88296761 110.08773675 460.89021015 123.4829607 C460.89212008 126.95918084 460.89404041 130.43540098 460.89599609 133.91162109 C460.89647983 134.77562901 460.89696357 135.63963693 460.89746197 136.5298269 C460.90576566 150.53211996 460.9311088 164.53432768 460.96357677 178.53658346 C460.99662996 192.90820684 461.01465728 207.27978683 461.01785439 221.65144843 C461.02002096 229.72236052 461.02879107 237.79314812 461.05431557 245.86402321 C461.07599872 252.73615567 461.08408476 259.60813339 461.07434878 266.48029617 C461.06979727 269.98691773 461.07173919 273.49321987 461.09111023 276.99979782 C461.10871366 280.80102532 461.10177887 284.60143718 461.08857727 288.40266418 C461.10503114 290.06594158 461.10503114 290.06594158 461.12181741 291.76282054 C461.07224926 297.65654791 460.8697808 301.64236237 456.60083008 306.11352539 C452.05515396 309.17367539 447.96607651 309.53856551 442.62820435 309.47428894 C441.8431193 309.47685221 441.05803425 309.47941549 440.24915874 309.48205644 C437.62805268 309.48698354 435.00752729 309.4705194 432.38647461 309.45410156 C430.50384027 309.45325506 428.62120493 309.45373089 426.73857117 309.45542908 C421.63363045 309.45628954 416.52890136 309.43865542 411.4240098 309.4177072 C406.08687317 309.39894897 400.74973165 309.39719063 395.41256714 309.39363098 C385.30854472 309.38430802 375.20461971 309.35969079 365.10064018 309.32958251 C353.59650147 309.29604636 342.09235811 309.27955446 330.58818269 309.26449621 C306.92566537 309.23314149 283.2632816 309.17812621 259.60083008 309.11352539 C259.60083008 328.25352539 259.60083008 347.39352539 259.60083008 367.11352539 C264.67973633 367.06711914 269.75864258 367.02071289 274.99145508 366.97290039 C278.20892343 366.95246234 281.42631176 366.93320672 284.64379883 366.91821289 C289.75090149 366.89430052 294.85771731 366.86601163 299.96459961 366.81176758 C304.08189792 366.76830829 308.19888865 366.74438811 312.31639862 366.73401642 C313.88731478 366.72662513 315.4582141 366.71219151 317.02899933 366.69060516 C319.22941977 366.66156857 321.42856921 366.65756927 323.62915039 366.65942383 C324.88157532 366.65054138 326.13400024 366.64165894 327.42437744 366.63250732 C330.60083008 367.11352539 330.60083008 367.11352539 333.00520325 368.91094971 C335.36671275 372.17073659 335.15460739 375.36558255 335.09692383 379.23852539 C335.09837906 380.02243652 335.09983429 380.80634766 335.10133362 381.61401367 C335.09967673 383.26818567 335.08813879 384.92237341 335.06738281 386.57641602 C335.03842681 389.10507845 335.04677709 391.63164344 335.05981445 394.16040039 C335.0535766 395.76978556 335.04518529 397.37916412 335.03442383 398.98852539 C335.03735947 399.74278809 335.0402951 400.49705078 335.0433197 401.27416992 C334.99114842 404.18432895 334.81301249 406.63822986 333.61886597 409.31315708 C330.4480953 412.14192492 326.94980676 411.66065906 322.90820312 411.61473083 C322.00937503 411.62026523 321.11054693 411.62579963 320.18448162 411.63150173 C317.16022623 411.64515982 314.13678876 411.63011104 311.11254883 411.61523438 C308.94951017 411.61901567 306.78647393 411.62451414 304.6234436 411.63160706 C298.73920758 411.64560356 292.85526258 411.63436238 286.97104263 411.61789584 C280.82248945 411.60407729 274.67395372 411.61050177 268.52539062 411.61402893 C258.1986012 411.61673358 247.87192783 411.60323347 237.54516602 411.58007812 C225.59416958 411.55346685 213.64336725 411.55172038 201.69235134 411.56346649 C190.2111048 411.57423365 178.72992869 411.56806554 167.24868774 411.55391121 C162.35558412 411.54814219 157.46253189 411.54824128 152.56942749 411.55297661 C146.81073049 411.55773762 141.05224692 411.547681 135.29359055 411.52602196 C133.17595515 411.52044197 131.05829929 411.51999983 128.94066238 411.52497482 C126.05802117 411.53089934 123.17603874 411.5184771 120.29345703 411.50120544 C119.02562142 411.51022051 119.02562142 411.51022051 117.73217297 411.5194177 C112.05819591 411.4572634 112.05819591 411.4572634 109.88780499 409.82608372 C107.64836339 406.84609216 108.17539198 403.19855955 108.20239258 399.61352539 C108.1995224 398.78143555 108.19665222 397.9493457 108.19369507 397.09204102 C108.19165446 395.33357055 108.19718415 393.57507738 108.2097168 391.81665039 C108.22577106 389.12342626 108.20986862 386.43170279 108.19067383 383.73852539 C108.19265626 382.03018874 108.19649994 380.32185303 108.20239258 378.61352539 C108.19631989 377.8072168 108.19024719 377.0009082 108.18399048 376.17016602 C108.2533815 370.66026791 108.2533815 370.66026791 109.6907196 368.39848328 C112.60537209 366.43775601 115.06753409 366.75471232 118.55078125 366.77294922 C119.25347641 366.77251114 119.95617157 366.77207306 120.68016052 366.7716217 C123.00165643 366.77371092 125.32242916 366.7970472 127.64379883 366.82055664 C129.25376491 366.82615215 130.86373609 366.83042246 132.47370911 366.8334198 C136.71037915 366.84487221 140.94674047 366.8743426 145.18328857 366.90753174 C150.26684947 366.94362084 155.35051361 366.95739191 160.43416595 366.97489166 C168.15660202 367.00397994 175.87836075 367.0614638 183.60083008 367.11352539 C183.60083008 347.97352539 183.60083008 328.83352539 183.60083008 309.11352539 C177.84629395 309.12923584 172.09175781 309.14494629 166.1628418 309.16113281 C147.17583811 309.21078357 128.1888319 309.24410904 109.20178032 309.26896191 C97.6869768 309.28443449 86.17223476 309.30553156 74.6574707 309.33984375 C64.62186522 309.36973404 54.58630425 309.38909754 44.55065548 309.39579087 C39.23625816 309.39970374 33.92198821 309.40890779 28.60763168 309.43071556 C23.60575762 309.45107479 18.60406343 309.45736029 13.60215187 309.45284843 C11.76634684 309.45367388 9.93053582 309.45964286 8.09476662 309.47114182 C5.58744219 309.48607715 3.08079608 309.48247532 0.57345581 309.47428894 C-0.15223827 309.48302746 -0.87793234 309.49176599 -1.62561715 309.50076932 C-6.29997588 309.45954436 -9.51036991 308.73146627 -13.39916992 306.11352539 C-18.44271749 300.82736832 -17.96015501 295.30890301 -17.90037537 288.41612244 C-17.90590976 287.23029353 -17.91144416 286.04446463 -17.91714627 284.82270151 C-17.92839301 281.53924327 -17.92172955 278.25638817 -17.90740955 274.97295988 C-17.89629477 271.42894546 -17.90824395 267.88499814 -17.91725159 264.34098816 C-17.93118224 257.40176923 -17.92362944 250.46273232 -17.908576 243.52352207 C-17.89171443 235.44323711 -17.89492631 227.36299748 -17.89867008 219.28270037 C-17.90454825 204.86649002 -17.89037833 190.45036702 -17.86572266 176.03417969 C-17.84179755 162.04358649 -17.83472018 148.05310998 -17.84521484 134.0625 C-17.85662199 118.82814941 -17.85855699 103.59385279 -17.84411675 88.35950285 C-17.8425909 86.73535606 -17.84107054 85.11120926 -17.83955574 83.48706245 C-17.83879793 82.68794396 -17.83804011 81.88882547 -17.83725933 81.06549127 C-17.83251528 75.43218661 -17.83436877 69.79890603 -17.83862114 64.16560173 C-17.84354579 57.30192715 -17.83757238 50.43836293 -17.81772684 43.57471364 C-17.80784975 40.07231363 -17.80275415 36.57008173 -17.81061935 33.06767273 C-17.81655113 29.27291542 -17.80410667 25.47865698 -17.78684998 21.6839447 C-17.79286002 20.57422662 -17.79887007 19.46450854 -17.80506223 18.32116264 C-17.72786751 9.02443972 -17.72786751 9.02443972 -14.39916992 5.11352539 C-9.59556792 0.79028359 -6.3712148 -0.01213565 0 0 Z " fill="#171D24" transform="translate(34.399169921875,100.886474609375)"/>
<path d="M0 0 C17.49 0 34.98 0 53 0 C53 75.9 53 151.8 53 230 C-88.9 230 -230.8 230 -377 230 C-377 154.43 -377 78.86 -377 1 C-359.51 1 -342.02 1 -324 1 C-323.9906543 6.27919434 -323.98130859 11.55838867 -323.97167969 16.99755859 C-323.93791268 34.43995335 -323.8825658 51.88223031 -323.81609726 69.32452965 C-323.77632424 79.8997866 -323.7439229 90.47496933 -323.72900391 101.05029297 C-323.71597842 110.27005213 -323.68899075 119.48964784 -323.64538693 128.70931494 C-323.6227924 133.58899713 -323.60708812 138.46847787 -323.60811615 143.34821701 C-323.60886394 147.9464211 -323.59086526 152.54418022 -323.55883217 157.14226913 C-323.55035233 158.82478301 -323.54857016 160.50734691 -323.55419731 162.18987274 C-323.58812202 173.89795081 -322.92088959 183.71262264 -314.26953125 192.4296875 C-306.89378899 197.53304101 -300.19716179 198.58260828 -291.36184692 198.50793457 C-289.64686203 198.51729451 -289.64686203 198.51729451 -287.89723098 198.52684355 C-284.08117744 198.54274805 -280.26576488 198.5301784 -276.44970703 198.51757812 C-273.70762827 198.52080075 -270.96557638 198.5299795 -268.22351074 198.53881836 C-261.5574199 198.55657076 -254.89150959 198.55277798 -248.22541179 198.5411678 C-242.80474839 198.53211927 -237.38413544 198.5309156 -231.96346664 198.53526306 C-231.19076086 198.53587599 -230.41805507 198.53648893 -229.62193396 198.53712043 C-228.0519708 198.53839939 -226.48200765 198.53969625 -224.91204451 198.5410108 C-210.20234489 198.55240738 -195.49274509 198.53931818 -180.78306185 198.51780933 C-168.17677637 198.49994627 -155.57063828 198.50303768 -142.96435547 198.52148438 C-128.30893494 198.54291966 -113.65360189 198.55130137 -98.99816787 198.53903532 C-97.43350022 198.53776119 -95.86883256 198.53650371 -94.30416489 198.53526306 C-93.53441673 198.53464596 -92.76466858 198.53402886 -91.97159473 198.53339306 C-86.56197559 198.52994759 -81.15241218 198.53575127 -75.74280167 198.54518127 C-69.14358213 198.55643255 -62.54455276 198.55329612 -55.94535483 198.5320583 C-52.58180717 198.52158833 -49.21883634 198.51953029 -45.85525131 198.53065491 C-42.20056129 198.54162571 -38.5467545 198.52782634 -34.89212036 198.50793457 C-33.84083517 198.51685746 -32.78954998 198.52578034 -31.70640767 198.53497362 C-23.01517003 198.44355684 -14.74759177 196.74519388 -8.0625 190.875 C-0.08806136 181.78115816 -0.41614106 171.03291832 -0.45410156 159.61669922 C-0.44535504 157.87139469 -0.43486551 156.12609817 -0.42277527 154.3808136 C-0.39502674 149.66868172 -0.39150811 144.95681295 -0.39249516 140.24461126 C-0.38935644 135.31048604 -0.36371832 130.37647764 -0.34051514 125.44241333 C-0.3000249 116.11064048 -0.27963084 106.7789374 -0.26654124 97.44709027 C-0.25064754 86.81821945 -0.21222193 76.18946694 -0.17194796 65.56066489 C-0.08964442 43.70712623 -0.03846659 21.85366282 0 0 Z " fill="#6AC6E6" transform="translate(418,125)"/>
<path d="M0 0 C0.99319059 -0.00445784 1.98638119 -0.00891569 3.00966847 -0.01350862 C4.10371113 -0.01332426 5.19775379 -0.01313989 6.32494926 -0.01294994 C8.06498767 -0.01846498 8.06498767 -0.01846498 9.84017837 -0.02409142 C13.06547972 -0.03321952 16.29075116 -0.03782824 19.51606321 -0.04048073 C22.99270576 -0.0443838 26.46933358 -0.0539622 29.94596672 -0.0626936 C38.34527389 -0.08245898 46.74458227 -0.09252476 55.14390689 -0.10142139 C59.09963962 -0.10580457 63.05537101 -0.11117134 67.01110268 -0.11641026 C80.16182808 -0.13342337 93.31255264 -0.14791708 106.46328735 -0.155159 C109.87623025 -0.15706888 113.28917314 -0.15898922 116.70211601 -0.16094494 C117.55038392 -0.16142868 118.39865184 -0.16191242 119.27262484 -0.16241082 C133.01099772 -0.17070937 146.74928349 -0.19604293 160.48761834 -0.22852562 C174.59370333 -0.26160573 188.69974405 -0.27960866 202.80586803 -0.28280324 C210.72541128 -0.28496756 218.64482753 -0.2937047 226.56433296 -0.31926441 C233.30975206 -0.34098453 240.0550133 -0.34901546 246.80046339 -0.33929763 C250.24062531 -0.33475653 253.68046163 -0.33662747 257.12057877 -0.35605907 C260.85507402 -0.37373024 264.58874465 -0.36669398 268.32324028 -0.35352612 C269.40389861 -0.36449536 270.48455694 -0.37546461 271.5979625 -0.38676625 C279.57700481 -0.3188987 285.71524714 1.27893135 291.9550457 6.38422108 C304.46535751 21.67460218 300.2050457 28.48374922 300.2050457 53.13422108 C193.2850457 53.13422108 86.3650457 53.13422108 -23.7949543 53.13422108 C-23.7949543 16.03165697 -23.7949543 16.03165697 -16.3574543 7.25922108 C-11.08797582 2.88940966 -6.92838593 0.01441347 0 0 Z " fill="#3A556A" transform="translate(117.79495429992676,-0.13422107696533203)"/>
<path d="M0 0 C3.4294375 2.64623577 6.50305497 5.61730902 9.54052734 8.69970703 C12.42463326 11.50398152 15.61617009 13.8653204 18.83984375 16.26171875 C19.91357205 17.07966482 20.98657871 17.89855979 22.05859375 18.71875 C22.81140625 19.28980469 23.56421875 19.86085937 24.33984375 20.44921875 C28.77591969 17.57249072 32.95260808 14.48850747 37.08984375 11.19921875 C37.64671875 10.75964844 38.20359375 10.32007813 38.77734375 9.8671875 C39.63585937 9.18849609 39.63585937 9.18849609 40.51171875 8.49609375 C41.11862549 8.02655273 41.72553223 7.55701172 42.35083008 7.07324219 C44.42585283 5.42214596 44.42585283 5.42214596 46.5534668 3.33300781 C53.3786084 -2.89343716 58.57385692 -3.71144901 67.65234375 -3.30078125 C69.4475647 -3.25449585 69.4475647 -3.25449585 71.27905273 -3.20727539 C86.61512571 -2.61996315 97.9045863 1.41240771 108.65234375 12.76171875 C112.4417084 17.24771407 115.11592069 22.02732882 117.33984375 27.44921875 C117.85454224 28.65130981 117.85454224 28.65130981 118.37963867 29.87768555 C119.74129917 34.94245326 119.68480533 39.82675155 119.7109375 45.05078125 C119.71996597 46.16480316 119.72899445 47.27882507 119.73829651 48.42660522 C119.75276927 50.77493614 119.76167833 53.1233071 119.76538086 55.47167969 C119.77732656 59.06904194 119.82658525 62.66471561 119.87695312 66.26171875 C119.88641218 68.54556456 119.89364968 70.82942087 119.8984375 73.11328125 C119.91796982 74.18937653 119.93750214 75.2654718 119.95762634 76.37417603 C119.95154861 77.3755661 119.94547089 78.37695618 119.93920898 79.40869141 C119.94427963 80.28772125 119.94935028 81.1667511 119.95457458 82.07241821 C119.04779234 85.57840881 117.3489384 86.50931005 114.33984375 88.44921875 C110.94306183 88.95537663 110.94306183 88.95537663 106.97668457 88.96388245 C106.2449844 88.97082797 105.51328424 88.9777735 104.75941133 88.9849295 C102.31260294 89.00319624 99.86676449 88.99293673 97.41992188 88.98266602 C95.66376521 88.98972464 93.90761462 88.99846942 92.151474 89.0087738 C87.38495782 89.03128267 82.61877345 89.02832478 77.85222435 89.01945233 C73.87341127 89.01434412 69.89466063 89.02163356 65.91585398 89.02892441 C56.53059848 89.04592779 47.14550557 89.04235268 37.76025391 89.02563477 C28.07561573 89.00870676 18.39142806 89.02455633 8.70683908 89.05685765 C0.39246995 89.08353894 -7.92175882 89.09083368 -16.23616648 89.08234257 C-21.20230006 89.07740984 -26.16816246 89.07964784 -31.13426208 89.10013008 C-35.8031449 89.11846467 -40.47137859 89.11255589 -45.14022636 89.08793068 C-46.85388806 89.08291598 -48.56759904 89.08642964 -50.28122139 89.09907913 C-52.62056215 89.11498186 -54.95775795 89.10008853 -57.29699707 89.07740784 C-58.60590157 89.07682153 -59.91480606 89.07623522 -61.26337433 89.07563114 C-65.51865376 88.29090023 -66.99640454 86.78600472 -69.66015625 83.44921875 C-70.28834534 81.15112305 -70.28834534 81.15112305 -70.29125977 78.7734375 C-70.30379288 77.8747998 -70.31632599 76.97616211 -70.32923889 76.05029297 C-70.31598068 75.08881348 -70.30272247 74.12733398 -70.2890625 73.13671875 C-70.29147446 72.13141113 -70.29388641 71.12610352 -70.29637146 70.09033203 C-70.29539293 67.96203675 -70.28199798 65.83371604 -70.25708008 63.70556641 C-70.22306303 60.48769846 -70.23634924 57.27262467 -70.25585938 54.0546875 C-70.24476449 37.62850435 -68.67287397 24.38631778 -57.22265625 11.76171875 C-56.37703125 10.99859375 -55.53140625 10.23546875 -54.66015625 9.44921875 C-53.89251953 8.71058594 -53.89251953 8.71058594 -53.109375 7.95703125 C-41.33704302 -2.92222727 -14.08279052 -9.1090942 0 0 Z " fill="#5D9CED" transform="translate(174.66015625,212.55078125)"/>
<path d="M0 0 C0.64417374 -0.00014603 1.28834747 -0.00029205 1.95204163 -0.0004425 C4.0784951 0.00025344 6.20486068 0.00803091 8.33129883 0.01586914 C9.80674695 0.01773445 11.28219569 0.01915782 12.75764465 0.02015686 C16.63908603 0.02397313 20.52048993 0.03379583 24.4019165 0.04486084 C28.36339816 0.05509408 32.32488588 0.05965858 36.28637695 0.06469727 C44.05788038 0.07541889 51.8293452 0.09300849 59.60083008 0.11352539 C59.60083008 8.36352539 59.60083008 16.61352539 59.60083008 25.11352539 C42.11083008 25.11352539 24.62083008 25.11352539 6.60083008 25.11352539 C6.60083008 100.68352539 6.60083008 176.25352539 6.60083008 254.11352539 C148.50083008 254.11352539 290.40083008 254.11352539 436.60083008 254.11352539 C436.60083008 178.21352539 436.60083008 102.31352539 436.60083008 24.11352539 C419.11083008 24.11352539 401.62083008 24.11352539 383.60083008 24.11352539 C383.60083008 16.19352539 383.60083008 8.27352539 383.60083008 0.11352539 C392.10254162 0.04565371 400.60404128 -0.00934573 409.10595131 -0.04191113 C413.05405395 -0.05754365 417.00196105 -0.07873741 420.94995117 -0.11279297 C424.76250496 -0.14547312 428.57487108 -0.16334578 432.38755417 -0.17110634 C433.83957242 -0.17663437 435.29158082 -0.18742935 436.74351883 -0.20366478 C438.78293013 -0.22555507 440.82157344 -0.22843684 442.86108398 -0.22705078 C444.02024323 -0.23371262 445.17940247 -0.24037445 446.37368774 -0.24723816 C451.9717283 0.37856906 455.99751833 2.84293369 459.60083008 7.11352539 C460.51900839 9.86806033 460.72532687 11.47330311 460.72387791 14.30892467 C460.72586878 15.16859907 460.72785965 16.02827347 460.72991085 16.9139986 C460.72699819 17.85827308 460.72408552 18.80254755 460.72108459 19.7754364 C460.72194061 20.77604599 460.72279663 21.77665558 460.72367859 22.80758667 C460.72533984 26.18652094 460.71980031 29.56540616 460.71435547 32.94433594 C460.71404929 35.39771682 460.71418236 37.8510978 460.71472073 40.30447865 C460.71492405 46.22188625 460.71063042 52.13928022 460.7042194 58.05668338 C460.69702706 64.89972871 460.69622507 71.74276641 460.69543457 78.58581543 C460.69018153 96.65755449 460.67622045 114.72929017 460.66333008 132.80102539 C460.64270508 173.16415039 460.62208008 213.52727539 460.60083008 255.11352539 C302.86083008 255.11352539 145.12083008 255.11352539 -17.39916992 255.11352539 C-17.46104492 214.79165039 -17.52291992 174.46977539 -17.58666992 132.92602539 C-17.61398193 120.18082275 -17.64129395 107.43562012 -17.66943359 94.30419922 C-17.6829834 78.77502441 -17.6829834 78.77502441 -17.6855011 71.51176453 C-17.68830302 66.42445084 -17.69932572 61.33720847 -17.71589661 56.24992371 C-17.73698237 49.76699923 -17.74265269 43.28417175 -17.73838675 36.80121362 C-17.73927921 34.418087 -17.74525762 32.03495578 -17.75681531 29.65185702 C-17.77167392 26.43971232 -17.76816336 23.22810166 -17.75993347 20.01594543 C-17.76867146 19.07749629 -17.77740946 18.13904715 -17.78641224 17.17216015 C-17.75287292 12.32228392 -17.5713908 9.03918208 -14.39916992 5.11352539 C-9.59556792 0.79028359 -6.3712148 -0.01213565 0 0 Z " fill="#38424B" transform="translate(34.399169921875,100.886474609375)"/>
<path d="M0 0 C10.01946971 7.32446383 17.17645218 17.31569232 19.8046875 29.60546875 C21.39018035 40.98178858 20.68739927 51.45115224 18.15234375 62.6171875 C17.39785204 66.52015271 17.11564238 70.26211248 16.9296875 74.23046875 C16.61648925 80.11982407 15.7944137 84.96260901 13.4296875 90.35546875 C13.17574219 91.00515625 12.92179687 91.65484375 12.66015625 92.32421875 C9.67284386 99.19912946 4.32070005 105.05785681 -1.36328125 109.875 C-2.77362832 111.30736641 -2.77362832 111.30736641 -2.6796875 113.44140625 C-2.50179687 114.57449219 -2.50179687 114.57449219 -2.3203125 115.73046875 C-2.20300781 116.52066406 -2.08570313 117.31085938 -1.96484375 118.125 C-1.32423582 121.75144962 -1.32423582 121.75144962 -0.5703125 125.35546875 C-1.23933594 125.56042969 -1.90835938 125.76539063 -2.59765625 125.9765625 C-6.65175465 127.85711012 -9.7304934 130.551637 -13.1328125 133.41796875 C-19.80199237 138.94405858 -26.58470883 144.23533879 -33.5703125 149.35546875 C-38.00640017 146.47873311 -42.18286622 143.39442995 -46.3203125 140.10546875 C-46.92721924 139.62674316 -47.53412598 139.14801758 -48.15942383 138.65478516 C-52.67236266 135.08940288 -57.14230818 131.47264878 -61.58203125 127.81640625 C-63.60491787 126.17343341 -63.60491787 126.17343341 -66.5703125 125.35546875 C-66.42735359 123.9593381 -66.28079692 122.56357567 -66.1328125 121.16796875 C-66.01099609 119.92853516 -66.01099609 119.92853516 -65.88671875 118.6640625 C-65.5703125 116.35546875 -65.5703125 116.35546875 -64.5703125 113.73046875 C-64.3101728 111.33681266 -64.3101728 111.33681266 -65.8203125 109.921875 C-67.05382769 108.77371466 -68.28973079 107.62811712 -69.52734375 106.484375 C-79.29202403 96.30894335 -82.42803117 82.52080706 -83.85058594 68.96826172 C-84.40280738 63.94304662 -85.60156995 59.97773387 -87.5703125 55.35546875 C-91.13399726 38.02522093 -87.12385051 22.0687235 -77.5703125 7.35546875 C-72.75370002 1.14400017 -66.94594185 -2.18598813 -59.5703125 -4.64453125 C-56.14533055 -4.67499488 -52.73227622 -4.57791824 -49.30859375 -4.484375 C-45.89198126 -4.63075025 -43.04191186 -5.27832894 -39.76000977 -6.1706543 C-26.21608446 -9.10172342 -11.65807958 -7.45904484 0 0 Z " fill="#FEC29B" transform="translate(233.5703125,84.64453125)"/>
<path d="M0 0 C0.89403898 -0.00538554 1.78807796 -0.01077108 2.70920902 -0.01631981 C5.71717148 -0.03067378 8.72469846 -0.02347736 11.73268127 -0.01637268 C13.88424536 -0.02207236 16.03580642 -0.02903505 18.18736267 -0.03717041 C24.04061607 -0.05516141 29.89372005 -0.05392227 35.74699283 -0.04822803 C40.62796207 -0.04514473 45.50890225 -0.05121903 50.38986737 -0.05726677 C61.9017868 -0.07132993 73.41363205 -0.06973584 84.92555237 -0.05836487 C96.81407168 -0.04688163 108.70236547 -0.06095885 120.59085506 -0.08776134 C130.78708821 -0.10989063 140.98325042 -0.11656198 151.17950588 -0.11068493 C157.27403699 -0.10730755 163.36842351 -0.10978222 169.46293449 -0.12693596 C175.19293895 -0.14235883 180.92260834 -0.1385013 186.65259933 -0.11963081 C188.75853344 -0.115932 190.86449212 -0.11909076 192.97040367 -0.1295166 C195.83970948 -0.14263987 198.70789182 -0.1312561 201.57714844 -0.11352539 C202.83477837 -0.1279329 202.83477837 -0.1279329 204.11781496 -0.14263147 C207.70974956 -0.09678841 209.90766325 0.06981566 212.86914158 2.18804836 C215.08271733 5.47145996 214.9051021 8.68950569 214.84815979 12.51268005 C214.84961502 13.29659119 214.85107025 14.08050232 214.85256958 14.88816833 C214.85091269 16.54234033 214.83937476 18.19652808 214.81861877 19.85057068 C214.78966277 22.37923311 214.79801305 24.9057981 214.81105042 27.43455505 C214.80481257 29.04394022 214.79642126 30.65331878 214.78565979 32.26268005 C214.78859543 33.01694275 214.79153107 33.77120544 214.79455566 34.54832458 C214.74238439 37.45848362 214.56424845 39.91238452 213.37010193 42.58731174 C210.19933127 45.41607958 206.70104272 44.93481373 202.65943909 44.8888855 C201.31119694 44.89718709 201.31119694 44.89718709 199.93571758 44.9056564 C196.91146219 44.91931448 193.88802473 44.90426571 190.86378479 44.88938904 C188.70074614 44.89317034 186.5377099 44.89866881 184.37467957 44.90576172 C178.49044354 44.91975822 172.60649855 44.90851705 166.72227859 44.8920505 C160.57372541 44.87823196 154.42518968 44.88465643 148.27662659 44.88818359 C137.94983716 44.89088825 127.62316379 44.87738813 117.29640198 44.85423279 C105.34540554 44.82762152 93.39460321 44.82587504 81.4435873 44.83762115 C69.96234076 44.84838831 58.48116465 44.8422202 46.99992371 44.82806587 C42.10682008 44.82229685 37.21376785 44.82239594 32.32066345 44.82713127 C26.56196645 44.83189229 20.80348288 44.82183566 15.04482651 44.80017662 C12.92719111 44.79459663 10.80953525 44.79415449 8.69189835 44.79912949 C5.80925713 44.805054 2.9272747 44.79263177 0.04469299 44.77536011 C-1.22314262 44.78437518 -1.22314262 44.78437518 -2.51659107 44.79357237 C-8.19056812 44.73141806 -8.19056812 44.73141806 -10.36095905 43.10023838 C-12.60040065 40.12024682 -12.07337205 36.47271421 -12.04637146 32.88768005 C-12.04924164 32.05559021 -12.05211182 31.22350037 -12.05506897 30.36619568 C-12.05710958 28.60772521 -12.05157989 26.84923204 -12.03904724 25.09080505 C-12.02299298 22.39758092 -12.03889541 19.70585746 -12.05809021 17.01268005 C-12.05610778 15.3043434 -12.0522641 13.59600769 -12.04637146 11.88768005 C-12.05244415 11.08137146 -12.05851685 10.27506287 -12.06477356 9.44432068 C-11.99429625 3.84816748 -11.99429625 3.84816748 -10.35980839 1.67512172 C-7.35093829 -0.58774563 -3.62152893 -0.02589132 0 0 Z " fill="#171D24" transform="translate(154.64793395996094,467.61231994628906)"/>
<path d="M0 0 C1.10314545 -0.01073296 1.10314545 -0.01073296 2.22857666 -0.02168274 C4.65562369 -0.03856929 7.08082328 -0.01916987 9.5078125 0.00219727 C11.19645338 0.00136855 12.88509418 -0.00109093 14.57373047 -0.00511169 C18.11124987 -0.00796964 21.6481361 0.0067305 25.18554688 0.03417969 C29.71873294 0.06826303 34.25078684 0.06224456 38.7840271 0.04351711 C42.27052232 0.03294563 45.75675434 0.04188617 49.2432251 0.05690193 C50.91456317 0.06208315 52.58592875 0.06160265 54.25726318 0.05535698 C56.5939844 0.04990273 58.92908814 0.07028371 61.265625 0.09765625 C61.95561584 0.09113037 62.64560669 0.08460449 63.35650635 0.07788086 C66.60494776 0.14254772 68.39647671 0.46118596 71.05992126 2.37611389 C72.84062683 4.92903839 73.14227758 6.16375533 73.16625977 9.24438477 C73.1820961 10.15212646 73.19793243 11.05986816 73.21424866 11.99511719 C73.20928879 12.96811768 73.20432892 13.94111816 73.19921875 14.94360352 C73.20541733 15.9494751 73.21161591 16.95534668 73.21800232 17.99169922 C73.2251006 20.116608 73.22192638 22.24157239 73.20922852 24.36645508 C73.1953608 27.61977291 73.22943693 30.87021606 73.26757812 34.12329102 C73.2685293 36.18839589 73.2666706 38.25350436 73.26171875 40.31860352 C73.27497696 41.291604 73.28823517 42.26460449 73.30189514 43.26708984 C73.28309547 44.62870239 73.28309547 44.62870239 73.26391602 46.01782227 C73.26295425 46.81406006 73.26199249 47.61029785 73.26100159 48.43066406 C72.29210869 51.82453097 70.6184151 52.84421695 67.6328125 54.63110352 C64.25585938 55.14576721 64.25585938 55.14576721 60.3515625 55.16455078 C59.27986816 55.17747414 59.27986816 55.17747414 58.18652344 55.19065857 C55.83491345 55.21328234 53.48449855 55.20658759 51.1328125 55.19750977 C49.49283495 55.20274669 47.85286042 55.20902342 46.21289062 55.21629333 C42.77980348 55.22669061 39.34713102 55.22214557 35.9140625 55.20751953 C31.51876235 55.19032495 27.12476866 55.2138375 22.72961426 55.24900913 C19.34431325 55.27098855 15.95932469 55.26954058 12.57397461 55.26124382 C10.95368008 55.26042473 9.33336251 55.26728014 7.71313477 55.28201485 C5.44596438 55.29947421 3.18113931 55.28491167 0.9140625 55.26220703 C-0.37435547 55.26124527 -1.66277344 55.26028351 -2.99023438 55.2592926 C-7.27713102 54.46183359 -8.75468413 53.06977156 -11.3671875 49.63110352 C-11.99537659 47.39306641 -11.99537659 47.39306641 -11.99829102 45.10375977 C-12.01082413 44.23936279 -12.02335724 43.37496582 -12.03627014 42.484375 C-12.02301193 41.56342041 -12.00975372 40.64246582 -11.99609375 39.69360352 C-11.99850571 38.73591064 -12.00091766 37.77821777 -12.00340271 36.79150391 C-12.00242516 34.7708725 -11.98905351 32.75021402 -11.96411133 30.72973633 C-11.92980015 27.64124343 -11.94345791 24.55561236 -11.96289062 21.46704102 C-11.95599193 19.50088303 -11.94631934 17.53473242 -11.93359375 15.56860352 C-11.93855362 14.64764893 -11.94351349 13.72669434 -11.94862366 12.77783203 C-11.93278732 11.91343506 -11.91695099 11.04903809 -11.90063477 10.15844727 C-11.89443619 9.40297607 -11.88823761 8.64750488 -11.8818512 7.86914062 C-10.3375747 1.15378819 -6.25365868 -0.10597101 0 0 Z " fill="#4795BC" transform="translate(327.3671875,89.368896484375)"/>
<path d="M0 0 C25.08 0 50.16 0 76 0 C76 19.14 76 38.28 76 58 C50.92 58 25.84 58 0 58 C0 38.86 0 19.72 0 0 Z " fill="#373F48" transform="translate(218,410)"/>
<path d="M0 0 C10.01946971 7.32446383 17.17645218 17.31569232 19.8046875 29.60546875 C21.31679526 40.26737142 22.63495759 55.04756361 16.4296875 64.35546875 C16.21054688 63.17210937 15.99140625 61.98875 15.765625 60.76953125 C13.31085267 47.62731238 13.31085267 47.62731238 6.4296875 36.35546875 C-0.98968986 31.56094269 -12.51573214 34.69957786 -20.5703125 36.35546875 C-22.57376519 37.01168651 -24.57417369 37.67732844 -26.5703125 38.35546875 C-31.67152487 39.17824494 -31.67152487 39.17824494 -34.5703125 38.35546875 C-36.84389139 36.51352796 -38.7351362 34.49935599 -40.70703125 32.33984375 C-43.62947825 29.22746833 -46.247927 27.62540534 -50.51953125 27.12890625 C-59.49863157 27.29011092 -67.04009444 33.85210916 -73.4453125 39.60546875 C-79.14942282 45.70103762 -83.18979803 53.98415034 -83.5703125 62.35546875 C-88.74757055 57.1782107 -88.74093926 49.28485666 -88.8828125 42.35546875 C-88.7448939 28.26018747 -83.87853501 13.75070752 -74.1328125 3.29296875 C-66.63477245 -3.52804737 -59.14574223 -4.75314955 -49.30859375 -4.484375 C-45.89198126 -4.63075025 -43.04191186 -5.27832894 -39.76000977 -6.1706543 C-26.21608446 -9.10172342 -11.65807958 -7.45904484 0 0 Z " fill="#8F684E" transform="translate(233.5703125,84.64453125)"/>
<path d="M0 0 C0.33 0 0.66 0 1 0 C1 10.89 1 21.78 1 33 C-105.92 33 -212.84 33 -323 33 C-323 32.67 -323 32.34 -323 32 C-259.31 32 -195.62 32 -130 32 C-129.67 29.03 -129.34 26.06 -129 23 C-125.93872317 16.87744634 -120.52986128 11.28745678 -114.03746033 8.91946411 C-109.10620872 7.58317593 -104.18319908 7.73657752 -99.10766602 7.77294922 C-98.03375107 7.77265717 -96.95983612 7.77236511 -95.8533783 7.77206421 C-92.32013743 7.77345238 -88.78711007 7.78898964 -85.25390625 7.8046875 C-82.79768489 7.80841945 -80.34146203 7.81126556 -77.88523865 7.81326294 C-71.43262596 7.82088506 -64.98010385 7.84052144 -58.52752686 7.8626709 C-51.93828558 7.8831599 -45.34902961 7.89227119 -38.75976562 7.90234375 C-25.83980519 7.92376859 -12.91990742 7.9575009 0 8 C0 5.36 0 2.72 0 0 Z " fill="#738594" transform="translate(417,20)"/>
<path d="M0 0 C0.86368698 -0.00511093 1.72737396 -0.01022186 2.61723328 -0.01548767 C5.47601219 -0.02940332 8.33455059 -0.0284256 11.19335938 -0.02612305 C13.1772877 -0.03000853 15.16121519 -0.03434289 17.1451416 -0.03910828 C21.30463355 -0.04657447 25.46404062 -0.04627605 29.62353516 -0.04101562 C34.96038294 -0.03521658 40.29688417 -0.0521606 45.63367462 -0.0753603 C49.73083536 -0.09007277 53.82791213 -0.0909728 57.9250946 -0.08785057 C59.89312935 -0.08836491 61.86116865 -0.09362363 63.82917786 -0.10366249 C66.57775588 -0.11596321 69.3256521 -0.109274 72.07421875 -0.09765625 C72.89093552 -0.10529999 73.70765228 -0.11294373 74.54911804 -0.12081909 C80.01143976 -0.06964094 80.01143976 -0.06964094 82.53479004 1.58308411 C84.30232352 4.56607939 84.00806146 6.91912462 83.53710938 10.2746582 C80.66168629 13.41077798 78.95175602 14.21897588 74.70458984 14.7893219 C73.18804728 14.81600256 71.67102081 14.82082235 70.15429688 14.80810547 C69.32279114 14.81672104 68.4912854 14.82533661 67.63458252 14.83421326 C64.89343907 14.85686603 62.15331844 14.85013629 59.41210938 14.84106445 C57.50308936 14.84630007 55.59407194 14.85257633 53.68505859 14.85984802 C49.68705051 14.87025073 45.68939839 14.86569219 41.69140625 14.85107422 C36.56976483 14.83387999 31.4492446 14.85739013 26.32772827 14.89256382 C22.38656185 14.91453018 18.44566408 14.91309831 14.50445557 14.90479851 C12.61621877 14.9039787 10.7279623 14.9108478 8.83978271 14.92556953 C6.19912889 14.94300322 3.56049466 14.92848447 0.91992188 14.90576172 C0.14158997 14.91745392 -0.63674194 14.92914612 -1.43865967 14.94119263 C-5.41813938 14.87156919 -7.2880078 14.40819326 -10.48681641 11.96568298 C-12.46289062 9.2746582 -12.46289062 9.2746582 -12.46289062 5.5871582 C-10.5105751 -0.87988698 -5.77419028 -0.01751535 0 0 Z " fill="#D5D6DB" transform="translate(322.462890625,274.725341796875)"/>
<path d="M0 0 C1.24703957 -0.01029488 1.24703957 -0.01029488 2.51927185 -0.02079773 C5.26570749 -0.03908958 8.01157319 -0.03522482 10.75805664 -0.02954102 C12.6685047 -0.03410176 14.57895112 -0.03940701 16.48939514 -0.04542542 C20.49332341 -0.05436127 24.49705228 -0.05192809 28.50097656 -0.04199219 C33.63033797 -0.03050346 38.75901087 -0.05071011 43.88828182 -0.07990932 C47.83370837 -0.09826171 51.77896965 -0.09798076 55.72442818 -0.0922718 C57.61545337 -0.09211846 59.50648968 -0.09817335 61.39747429 -0.11056328 C64.04276499 -0.12545293 66.68678027 -0.11481151 69.33203125 -0.09765625 C70.50188568 -0.1121582 70.50188568 -0.1121582 71.69537354 -0.12695312 C75.36172917 -0.07720157 77.56055326 0.30124646 80.72438049 2.2127533 C82.73071289 4.40405273 82.73071289 4.40405273 83.23071289 7.96655273 C82.73071289 11.40405273 82.73071289 11.40405273 81.72740173 13.09364319 C78.50426299 15.20896116 75.01533906 14.82871352 71.28369141 14.80810547 C69.99057037 14.81840034 69.99057037 14.81840034 68.67132568 14.8289032 C65.81725668 14.84722747 62.96373444 14.84332564 60.10961914 14.83764648 C58.12808553 14.8422057 56.14655351 14.84751048 54.1650238 14.85353088 C50.00969016 14.86247313 45.85454858 14.86002632 41.69921875 14.85009766 C36.37132221 14.83860855 31.04408847 14.85881302 25.71627903 14.88801479 C21.62334473 14.90635209 17.53056997 14.90608923 13.4376049 14.90037727 C11.4731853 14.90022375 9.5087551 14.906294 7.54437447 14.91866875 C4.79820187 14.93352975 2.05326263 14.92293786 -0.69287109 14.90576172 C-1.50599258 14.91542969 -2.31911407 14.92509766 -3.15687561 14.93505859 C-6.72449044 14.8882808 -8.86333761 14.69357701 -11.80531311 12.59535217 C-13.26928711 10.40405273 -13.26928711 10.40405273 -13.26928711 6.84155273 C-12.26928711 3.40405273 -12.26928711 3.40405273 -10.72361755 1.71446228 C-7.21803652 -0.15722817 -3.87788378 -0.02232544 0 0 Z " fill="#D5D6DB" transform="translate(323.269287109375,204.595947265625)"/>
<path d="M0 0 C0.8428656 -0.00700928 1.6857312 -0.01401855 2.55413818 -0.02124023 C5.33257251 -0.03880637 8.10998356 -0.02720365 10.88842773 -0.01367188 C12.82226252 -0.01636694 14.75609599 -0.02024948 16.68992615 -0.02526855 C20.73921636 -0.03116151 24.78815324 -0.02260619 28.83740234 -0.00390625 C34.02851466 0.0188984 39.21880045 0.00574931 44.40988255 -0.01819611 C48.40160863 -0.03264651 52.39313855 -0.02805183 56.38487053 -0.01768494 C58.29904211 -0.01501635 60.21323149 -0.01829205 62.12738228 -0.02760315 C64.80154782 -0.03775797 67.47437194 -0.02228388 70.1484375 0 C70.93971542 -0.00809692 71.73099335 -0.01619385 72.54624939 -0.02453613 C76.08145363 0.03006387 78.12179322 0.23046101 81.00083923 2.36242676 C83.06443983 5.31027853 83.09683007 6.99372662 82.50952148 10.51757812 C81.00083923 12.67272949 81.00083923 12.67272949 78.50952148 14.51757812 C75.59608304 14.912177 73.06087133 15.06495836 70.1484375 15.03515625 C68.88676758 15.04567017 68.88676758 15.04567017 67.59960938 15.05639648 C64.82054581 15.07399441 62.04250158 15.06234651 59.26342773 15.04882812 C57.33055933 15.05152278 55.39769225 15.05540498 53.46482849 15.0604248 C49.41375829 15.0663225 45.3630409 15.05774908 41.31201172 15.0390625 C36.12208962 15.01628809 30.9329956 15.02938479 25.74310398 15.05335236 C21.75133542 15.067816 17.75976271 15.06320147 13.7679882 15.05284119 C11.85464314 15.05017468 9.94128024 15.05344099 8.02795601 15.0627594 C5.35149272 15.07293261 2.67636404 15.05741292 0 15.03515625 C-1.18388054 15.04730164 -1.18388054 15.04730164 -2.39167786 15.05969238 C-6.09780552 15.00267268 -8.29980557 14.6351619 -11.48207092 12.67272949 C-13.49047852 10.51757812 -13.49047852 10.51757812 -14.11547852 7.51757812 C-13.49047852 4.51757812 -13.49047852 4.51757812 -11.48207092 2.36242676 C-7.63272722 -0.01137806 -4.38592889 -0.04499508 0 0 Z " fill="#D5D7DB" transform="translate(323.490478515625,239.482421875)"/>
<path d="M0 0 C1.27870972 -0.00810448 1.27870972 -0.00810448 2.58325195 -0.01637268 C5.39960506 -0.02887447 8.2149388 -0.0123595 11.03125 0.00561523 C12.98893284 0.00546028 14.94661599 0.00397189 16.90429688 0.00120544 C21.00664841 -0.0001792 25.10865061 0.01239052 29.2109375 0.03515625 C34.47035335 0.06354098 39.72918866 0.06080439 44.98864746 0.04806614 C49.03097495 0.04111236 53.07316817 0.04889483 57.11547852 0.06132317 C59.05476364 0.06584058 60.99406317 0.06617194 62.93334961 0.06225777 C65.64336714 0.05934851 68.35258366 0.07583875 71.0625 0.09765625 C72.26579956 0.09090378 72.26579956 0.09090378 73.4934082 0.08401489 C76.73021087 0.12732875 79.13880803 0.2967784 82.03320312 1.80821228 C83.53125 3.50170898 83.53125 3.50170898 83.96875 7.00170898 C83.53125 10.50170898 83.53125 10.50170898 82.23873901 12.19664955 C79.26074793 14.47277275 75.57846727 13.91637136 71.9765625 13.88989258 C71.10312195 13.89514954 70.2296814 13.90040649 69.32977295 13.90582275 C66.4384175 13.91904223 63.54761119 13.91027779 60.65625 13.90014648 C58.64990127 13.90216666 56.64355325 13.90507762 54.63720703 13.90884399 C50.43059301 13.91326999 46.22416997 13.90682739 42.01757812 13.89282227 C36.62017617 13.87573029 31.22322171 13.88556999 25.82583618 13.90353966 C21.68233862 13.91437002 17.53894751 13.91093458 13.39544678 13.90315628 C11.4050898 13.90115221 9.41472321 13.90362079 7.42437744 13.91059494 C4.64463632 13.91819709 1.8656242 13.90662262 -0.9140625 13.88989258 C-2.15316376 13.89900162 -2.15316376 13.89900162 -3.41729736 13.90829468 C-9.03065642 13.84557058 -9.03065642 13.84557058 -11.17623901 12.1614933 C-12.46875 10.50170898 -12.46875 10.50170898 -12.90625 7.56420898 C-12.46875 4.50170898 -12.46875 4.50170898 -10.97070312 2.34165955 C-7.44752383 -0.24930655 -4.20667152 -0.05069806 0 0 Z " fill="#D5D6DB" transform="translate(322.46875,170.498291015625)"/>
<path d="M0 0 C2.31346901 0.86755088 4.56104211 1.75767936 6.7265625 2.953125 C18.52883596 9.46137456 31.98376802 9.18301048 44.76171875 6 C49.73427821 4.46444485 54.36466099 2.3501819 59 0 C61.00293347 3.00440021 61.49271626 4.70993945 62.125 8.1875 C62.29257813 9.08855469 62.46015625 9.98960937 62.6328125 10.91796875 C62.75398438 11.60503906 62.87515625 12.29210937 63 13 C62.33097656 13.20496094 61.66195312 13.40992188 60.97265625 13.62109375 C56.91855785 15.50164137 53.8398191 18.19616825 50.4375 21.0625 C43.76832013 26.58858983 36.98560367 31.87987004 30 37 C25.56391233 34.12326436 21.38744628 31.0389612 17.25 27.75 C16.64309326 27.27127441 16.03618652 26.79254883 15.41088867 26.29931641 C10.89794984 22.73393413 6.42800432 19.11718003 1.98828125 15.4609375 C-0.03460537 13.81796466 -0.03460537 13.81796466 -3 13 C-2.88490339 11.58249437 -2.75746342 10.16598831 -2.625 8.75 C-2.55539063 7.96109375 -2.48578125 7.1721875 -2.4140625 6.359375 C-1.98492887 3.914123 -1.21399362 2.15163097 0 0 Z " fill="#FDAF8D" transform="translate(170,197)"/>
<path d="M0 0 C3.375 0.875 3.375 0.875 5.375 2.875 C5.55025055 5.67184797 5.60643189 8.3682808 5.5703125 11.1640625 C5.5674826 11.98248627 5.56465271 12.80091003 5.56173706 13.64413452 C5.55052532 16.26290393 5.52541929 18.88133364 5.5 21.5 C5.48997147 23.27343257 5.4808454 25.04687049 5.47265625 26.8203125 C5.45058278 31.17200626 5.41604644 35.5234455 5.375 39.875 C1.085 39.875 -3.205 39.875 -7.625 39.875 C-7.72397181 34.82134708 -7.79651603 29.76825976 -7.84472656 24.71386719 C-7.86482628 22.99501721 -7.89211089 21.27623548 -7.92675781 19.55761719 C-7.97535034 17.08511511 -7.99798435 14.6135179 -8.015625 12.140625 C-8.03627014 11.37381409 -8.05691528 10.60700317 -8.07818604 9.81695557 C-8.0796627 6.29569221 -7.89533902 4.25459064 -5.82714844 1.35058594 C-3.625 -0.125 -3.625 -0.125 0 0 Z " fill="#4C7EC1" transform="translate(145.625,261.125)"/>
<path d="M0 0 C1.66918945 1.01293945 1.66918945 1.01293945 3 3 C3.26159322 5.79989129 3.34904338 8.37227929 3.29296875 11.16796875 C3.28872391 11.96278152 3.28447906 12.7575943 3.28010559 13.57649231 C3.2633193 16.11384021 3.22566824 18.65039238 3.1875 21.1875 C3.17245305 22.90819165 3.15876466 24.62889576 3.14648438 26.34960938 C3.11341607 30.56671262 3.06163495 34.78322142 3 39 C-0.96 39 -4.92 39 -9 39 C-9.07413521 33.92801112 -9.12859451 28.85633732 -9.16479492 23.78393555 C-9.17988516 22.05829373 -9.20035975 20.33269028 -9.22631836 18.60717773 C-9.26269209 16.12734512 -9.27972359 13.64801936 -9.29296875 11.16796875 C-9.30845261 10.39599655 -9.32393646 9.62402435 -9.33988953 8.82865906 C-9.34156217 3.50999348 -9.34156217 3.50999348 -7.66918945 1.01293945 C-5.03593392 -0.58503878 -3.00050659 -0.37506332 0 0 Z " fill="#4B7EC1" transform="translate(258,261)"/>
<path d="M0 0 C1.09248047 -0.00515625 2.18496094 -0.0103125 3.31054688 -0.015625 C4.44685547 -0.00015625 5.58316406 0.0153125 6.75390625 0.03125 C8.45256836 0.00804688 8.45256836 0.00804688 10.18554688 -0.015625 C18.4208568 0.02319791 18.4208568 0.02319791 22.56640625 2.375 C24.31640625 4.53125 24.31640625 4.53125 24.87890625 7.53125 C24.18621576 11.22559928 23.23615386 12.2193377 20.31640625 14.53125 C16.04380636 15.35660857 11.7223207 15.13394491 7.37890625 15.09375 C5.60870117 15.12952148 5.60870117 15.12952148 3.80273438 15.16601562 C-5.83785011 15.14964791 -5.83785011 15.14964791 -8.99609375 12.15625 C-10.68359375 9.53125 -10.68359375 9.53125 -10.74609375 6.96875 C-8.44688031 1.69408388 -5.65892806 0.02567031 0 0 Z " fill="#33C766" transform="translate(237.68359375,18.46875)"/>
<path d="M0 0 C1.13244141 -0.02835938 2.26488281 -0.05671875 3.43164062 -0.0859375 C12.70173693 -0.10778805 12.70173693 -0.10778805 15.80859375 2.87109375 C17.5625 5.5 17.5625 5.5 18.1875 8.0625 C17.28673274 11.57549231 15.54346787 12.5221759 12.5625 14.5 C8.23721461 15.29813771 3.89112138 15.10326956 -0.5 15.0625 C-1.68400391 15.08634766 -2.86800781 15.11019531 -4.08789062 15.13476562 C-5.22548828 15.13283203 -6.36308594 15.13089844 -7.53515625 15.12890625 C-8.57164307 15.12963135 -9.60812988 15.13035645 -10.67602539 15.13110352 C-13.4375 14.5 -13.4375 14.5 -15.80639648 12.15600586 C-17.4375 9.5 -17.4375 9.5 -17.4375 6.375 C-14.70285071 -1.48711672 -6.98891198 -0.01585686 0 0 Z " fill="#E75351" transform="translate(202.4375,18.5)"/>
<path d="M0 0 C1.051875 0.00064453 2.10375 0.00128906 3.1875 0.00195312 C4.280625 0.01806641 5.37375 0.03417969 6.5 0.05078125 C7.593125 0.04755859 8.68625 0.04433594 9.8125 0.04101562 C18.98789037 0.10285956 18.98789037 0.10285956 22.5 2.36328125 C24.04163175 5.44654475 23.79747535 7.97206224 23.5 11.36328125 C20.42881492 14.51815976 17.85602052 14.76569132 13.5625 14.83203125 C11.20846022 14.85860055 8.85418417 14.86838794 6.5 14.86328125 C5.31148437 14.89164063 4.12296875 14.92 2.8984375 14.94921875 C1.75632813 14.95179687 0.61421875 14.954375 -0.5625 14.95703125 C-1.60535156 14.96412109 -2.64820313 14.97121094 -3.72265625 14.97851562 C-6.5 14.36328125 -6.5 14.36328125 -8.87109375 12.02148438 C-10.5 9.36328125 -10.5 9.36328125 -10.5 6.23828125 C-8.64095686 0.89353222 -5.36402816 -0.01667247 0 0 Z " fill="#F7D04F" transform="translate(153.5,18.63671875)"/>
<path d="M0 0 C1.19302734 -0.01998047 2.38605469 -0.03996094 3.61523438 -0.06054688 C4.76185547 -0.05990234 5.90847656 -0.05925781 7.08984375 -0.05859375 C8.13906006 -0.06044678 9.18827637 -0.0622998 10.26928711 -0.06420898 C13.76172909 0.56309355 14.96614162 1.61309521 17.0625 4.4375 C17.0625 8 17.0625 8 16.0625 11.4375 C11.52790558 15.89029137 6.03276633 14.91372225 0.0625 14.875 C-1.5771875 14.9049707 -1.5771875 14.9049707 -3.25 14.93554688 C-4.301875 14.93490234 -5.35375 14.93425781 -6.4375 14.93359375 C-7.3965625 14.93544678 -8.355625 14.9372998 -9.34375 14.93920898 C-12.69400509 14.29116924 -13.87973493 13.11623507 -15.9375 10.4375 C-16.66705705 4.49682113 -16.66705705 4.49682113 -14.77514648 1.74975586 C-10.73752496 -1.1334932 -4.77035315 -0.02825734 0 0 Z " fill="#E7514E" transform="translate(402.9375,375.5625)"/>
<path d="M0 0 C1.14533203 -0.02449219 2.29066406 -0.04898437 3.47070312 -0.07421875 C4.57220703 -0.07808594 5.67371094 -0.08195312 6.80859375 -0.0859375 C7.81591553 -0.09415527 8.8232373 -0.10237305 9.86108398 -0.11083984 C13.29675371 0.50705286 14.49159671 1.60537104 16.5625 4.375 C16.5625 7.9375 16.5625 7.9375 15.5625 11.375 C11.02916999 15.82075432 5.53264717 14.88908054 -0.4375 14.875 C-1.530625 14.90335937 -2.62375 14.93171875 -3.75 14.9609375 C-11.71280527 14.98045418 -11.71280527 14.98045418 -15.19140625 12.07421875 C-16.88324633 8.40944918 -16.52443507 6.21550391 -15.4375 2.375 C-10.67664081 -0.79890613 -5.59804275 0.00627935 0 0 Z " fill="#F6CE4D" transform="translate(355.4375,375.625)"/>
<path d="M0 0 C1.14984375 -0.00386719 2.2996875 -0.00773437 3.484375 -0.01171875 C4.68578125 -0.00011719 5.8871875 0.01148438 7.125 0.0234375 C8.32640625 0.01183594 9.5278125 0.00023437 10.765625 -0.01171875 C12.49039062 -0.00591797 12.49039062 -0.00591797 14.25 0 C15.83167969 0.00507568 15.83167969 0.00507568 17.4453125 0.01025391 C20.125 0.3984375 20.125 0.3984375 21.96484375 1.70849609 C23.94556242 4.5937096 23.53915577 7.02602619 23.125 10.3984375 C21.06825489 13.07316055 19.87285867 14.24920365 16.53125 14.91601562 C15.09265625 14.9227832 15.09265625 14.9227832 13.625 14.9296875 C12.573125 14.93484375 11.52125 14.94 10.4375 14.9453125 C9.344375 14.92984375 8.25125 14.914375 7.125 14.8984375 C5.4853125 14.92164063 5.4853125 14.92164063 3.8125 14.9453125 C2.760625 14.94015625 1.70875 14.935 0.625 14.9296875 C-0.3340625 14.92517578 -1.293125 14.92066406 -2.28125 14.91601562 C-5.62285867 14.24920365 -6.81825489 13.07316055 -8.875 10.3984375 C-9.60420412 4.46063255 -9.60420412 4.46063255 -7.71484375 1.70849609 C-5.10917785 -0.14686527 -3.17844187 0.01019977 0 0 Z " fill="#32C663" transform="translate(443.875,375.6015625)"/>
<path d="M0 0 C2.31346901 0.86755088 4.56104211 1.75767936 6.7265625 2.953125 C18.52883596 9.46137456 31.98376802 9.18301048 44.76171875 6 C49.73427821 4.46444485 54.36466099 2.3501819 59 0 C61 3 61 3 61 6 C46.69837221 13.71239614 31.93849462 18.22130228 15.71875 14.015625 C9.60418512 12.16450733 4.10960454 9.91455461 -1 6 C-1.4375 3.3125 -1.4375 3.3125 -1 1 C-0.67 0.67 -0.34 0.34 0 0 Z " fill="#FE9F7F" transform="translate(170,197)"/>
</svg>
